<?xml version="1.0" encoding="UTF-8" standalone="no"?>

<svg width="90" height="71" viewBox="0 0 23.812501 18.785417" version="1.1">
  <g>
    <rect fill="currentColor" width="15.08125" height="10.054167" x="0" y="8.7312508" ry="2.1166668" />
    <path fill="currentColor" d="M 4.7625001,0 C 3.5898668,0 2.6458334,0.9440333 2.6458334,2.1166667 V 7.6729172 H 7.6729169 V 4.7625001 c 0,-1.1726334 0.9440333,-2.1166667 2.1166667,-2.1166667 H 17.727084 V 2.1166667 C 17.727084,0.9440333 16.78305,0 15.610417,0 Z" />
    <path fill="currentColor" d="m 10.847917,3.7041667 c -1.1726334,0 -2.1166668,0.9440334 -2.1166668,2.1166665 v 1.852084 h 5.2916668 c 1.172633,0 2.116667,0.944033 2.116667,2.116666 v 3.9687498 h 5.55625 c 1.172633,0 2.116667,-0.944033 2.116667,-2.116666 V 5.8208332 c 0,-1.1726331 -0.944034,-2.1166665 -2.116667,-2.1166665 z" />
  </g>
</svg>
